<mxfile host="app.diagrams.net" agent="Mozilla/5.0 (Windows NT 10.0; Win64; x64) AppleWebKit/537.36 (KHTML, like Gecko) Chrome/131.0.0.0 Safari/537.36" version="26.0.6">
  <diagram id="R2lEEEUBdFMjLlhIrx00" name="Page-1">
    <mxGraphModel dx="3148" dy="2016" grid="1" gridSize="10" guides="1" tooltips="1" connect="1" arrows="1" fold="1" page="1" pageScale="1" pageWidth="850" pageHeight="1100" math="0" shadow="0" extFonts="Permanent Marker^https://fonts.googleapis.com/css?family=Permanent+Marker">
      <root>
        <mxCell id="0" />
        <mxCell id="1" parent="0" />
        <mxCell id="C-vyLk0tnHw3VtMMgP7b-23" value="mdl_tool_lifecyclemanager_process" style="shape=table;startSize=40;container=1;collapsible=1;childLayout=tableLayout;fixedRows=1;rowLines=0;fontStyle=1;align=center;resizeLast=1;" parent="1" vertex="1">
          <mxGeometry x="-230" y="390" width="290" height="190" as="geometry" />
        </mxCell>
        <mxCell id="C-vyLk0tnHw3VtMMgP7b-24" value="" style="shape=partialRectangle;collapsible=0;dropTarget=0;pointerEvents=0;fillColor=none;points=[[0,0.5],[1,0.5]];portConstraint=eastwest;top=0;left=0;right=0;bottom=1;" parent="C-vyLk0tnHw3VtMMgP7b-23" vertex="1">
          <mxGeometry y="40" width="290" height="40" as="geometry" />
        </mxCell>
        <mxCell id="C-vyLk0tnHw3VtMMgP7b-25" value="PK" style="shape=partialRectangle;overflow=hidden;connectable=0;fillColor=none;top=0;left=0;bottom=0;right=0;fontStyle=1;" parent="C-vyLk0tnHw3VtMMgP7b-24" vertex="1">
          <mxGeometry width="30" height="40" as="geometry">
            <mxRectangle width="30" height="40" as="alternateBounds" />
          </mxGeometry>
        </mxCell>
        <mxCell id="C-vyLk0tnHw3VtMMgP7b-26" value="id: BIGINT ( NOT NULL, AUTO_INCREMENT)" style="shape=partialRectangle;overflow=hidden;connectable=0;fillColor=none;top=0;left=0;bottom=0;right=0;align=left;spacingLeft=6;fontStyle=5;" parent="C-vyLk0tnHw3VtMMgP7b-24" vertex="1">
          <mxGeometry x="30" width="260" height="40" as="geometry">
            <mxRectangle width="260" height="40" as="alternateBounds" />
          </mxGeometry>
        </mxCell>
        <mxCell id="C-vyLk0tnHw3VtMMgP7b-27" value="" style="shape=partialRectangle;collapsible=0;dropTarget=0;pointerEvents=0;fillColor=none;points=[[0,0.5],[1,0.5]];portConstraint=eastwest;top=0;left=0;right=0;bottom=0;" parent="C-vyLk0tnHw3VtMMgP7b-23" vertex="1">
          <mxGeometry y="80" width="290" height="110" as="geometry" />
        </mxCell>
        <mxCell id="C-vyLk0tnHw3VtMMgP7b-28" value="&#xa;" style="shape=partialRectangle;overflow=hidden;connectable=0;fillColor=none;top=0;left=0;bottom=0;right=0;" parent="C-vyLk0tnHw3VtMMgP7b-27" vertex="1">
          <mxGeometry width="30" height="110" as="geometry">
            <mxRectangle width="30" height="110" as="alternateBounds" />
          </mxGeometry>
        </mxCell>
        <mxCell id="C-vyLk0tnHw3VtMMgP7b-29" value="-courseid:BIGINT&#xa;&#xa;-workflowid:BIGINT&#xa; &#xa;- stepindex:MEDIUMINT&#xa;&#xa; -waiting:TINYINT(1)&#xa;&#xa; -timestepchanged:BIGINT" style="shape=partialRectangle;overflow=hidden;connectable=0;fillColor=none;top=0;left=0;bottom=0;right=0;align=left;spacingLeft=6;" parent="C-vyLk0tnHw3VtMMgP7b-27" vertex="1">
          <mxGeometry x="30" width="260" height="110" as="geometry">
            <mxRectangle width="260" height="110" as="alternateBounds" />
          </mxGeometry>
        </mxCell>
        <mxCell id="iaKqFvhlnR3sGgSz1A7N-24" value="mdl_tool_lifecyclemanager_workflow" style="shape=table;startSize=30;container=1;collapsible=1;childLayout=tableLayout;fixedRows=1;rowLines=0;fontStyle=1;align=center;resizeLast=1;" vertex="1" parent="1">
          <mxGeometry x="160" y="-10" width="370" height="330" as="geometry" />
        </mxCell>
        <mxCell id="iaKqFvhlnR3sGgSz1A7N-25" value="" style="shape=partialRectangle;collapsible=0;dropTarget=0;pointerEvents=0;fillColor=none;points=[[0,0.5],[1,0.5]];portConstraint=eastwest;top=0;left=0;right=0;bottom=1;" vertex="1" parent="iaKqFvhlnR3sGgSz1A7N-24">
          <mxGeometry y="30" width="370" height="40" as="geometry" />
        </mxCell>
        <mxCell id="iaKqFvhlnR3sGgSz1A7N-26" value="PK" style="shape=partialRectangle;overflow=hidden;connectable=0;fillColor=none;top=0;left=0;bottom=0;right=0;fontStyle=1;" vertex="1" parent="iaKqFvhlnR3sGgSz1A7N-25">
          <mxGeometry width="30" height="40" as="geometry">
            <mxRectangle width="30" height="40" as="alternateBounds" />
          </mxGeometry>
        </mxCell>
        <mxCell id="iaKqFvhlnR3sGgSz1A7N-27" value="id: BIGINT ( NOT NULL, AUTO_INCREMENT)" style="shape=partialRectangle;overflow=hidden;connectable=0;fillColor=none;top=0;left=0;bottom=0;right=0;align=left;spacingLeft=6;fontStyle=5;" vertex="1" parent="iaKqFvhlnR3sGgSz1A7N-25">
          <mxGeometry x="30" width="340" height="40" as="geometry">
            <mxRectangle width="340" height="40" as="alternateBounds" />
          </mxGeometry>
        </mxCell>
        <mxCell id="iaKqFvhlnR3sGgSz1A7N-28" value="" style="shape=partialRectangle;collapsible=0;dropTarget=0;pointerEvents=0;fillColor=none;points=[[0,0.5],[1,0.5]];portConstraint=eastwest;top=0;left=0;right=0;bottom=0;" vertex="1" parent="iaKqFvhlnR3sGgSz1A7N-24">
          <mxGeometry y="70" width="370" height="260" as="geometry" />
        </mxCell>
        <mxCell id="iaKqFvhlnR3sGgSz1A7N-29" value="&#xa;" style="shape=partialRectangle;overflow=hidden;connectable=0;fillColor=none;top=0;left=0;bottom=0;right=0;" vertex="1" parent="iaKqFvhlnR3sGgSz1A7N-28">
          <mxGeometry width="30" height="260" as="geometry">
            <mxRectangle width="30" height="260" as="alternateBounds" />
          </mxGeometry>
        </mxCell>
        <mxCell id="iaKqFvhlnR3sGgSz1A7N-30" value="- title : VARCHAR(255) NOT NULL&#xa;&#xa;- timeactive : BIGINT NULL&#xa;&#xa;- timedeactive : BIGINT NULL&#xa; &#xa;- sortindex : SMALLINT NULL&#xa; &#xa;- manual : TINYINT(1) NOT NULL DEFAULT 0&#xa;&#xa;- rollbackdelay : BIGINT NOT NULL DEFAULT 0&#xa;&#xa;- finishdelay : BIGINT NOT NULL DEFAULT 0&#xa;&#xa;- delayforallworkflows : TINYINT(1) NOT NULL DEFAULT 0&#xa; &#xa;- displaytitle : VARCHAR(255) NULL&#xa;&#xa; " style="shape=partialRectangle;overflow=hidden;connectable=0;fillColor=none;top=0;left=0;bottom=0;right=0;align=left;spacingLeft=6;" vertex="1" parent="iaKqFvhlnR3sGgSz1A7N-28">
          <mxGeometry x="30" width="340" height="260" as="geometry">
            <mxRectangle width="340" height="260" as="alternateBounds" />
          </mxGeometry>
        </mxCell>
        <mxCell id="iaKqFvhlnR3sGgSz1A7N-32" value="mdl_course" style="shape=table;startSize=30;container=1;collapsible=1;childLayout=tableLayout;fixedRows=1;rowLines=0;fontStyle=1;align=center;resizeLast=1;" vertex="1" parent="1">
          <mxGeometry x="-20" y="750" width="290" height="180" as="geometry" />
        </mxCell>
        <mxCell id="iaKqFvhlnR3sGgSz1A7N-33" value="" style="shape=partialRectangle;collapsible=0;dropTarget=0;pointerEvents=0;fillColor=none;points=[[0,0.5],[1,0.5]];portConstraint=eastwest;top=0;left=0;right=0;bottom=1;" vertex="1" parent="iaKqFvhlnR3sGgSz1A7N-32">
          <mxGeometry y="30" width="290" height="40" as="geometry" />
        </mxCell>
        <mxCell id="iaKqFvhlnR3sGgSz1A7N-34" value="PK" style="shape=partialRectangle;overflow=hidden;connectable=0;fillColor=none;top=0;left=0;bottom=0;right=0;fontStyle=1;" vertex="1" parent="iaKqFvhlnR3sGgSz1A7N-33">
          <mxGeometry width="30" height="40" as="geometry">
            <mxRectangle width="30" height="40" as="alternateBounds" />
          </mxGeometry>
        </mxCell>
        <mxCell id="iaKqFvhlnR3sGgSz1A7N-35" value="id: BIGINT ( NOT NULL, AUTO_INCREMENT)" style="shape=partialRectangle;overflow=hidden;connectable=0;fillColor=none;top=0;left=0;bottom=0;right=0;align=left;spacingLeft=6;fontStyle=5;" vertex="1" parent="iaKqFvhlnR3sGgSz1A7N-33">
          <mxGeometry x="30" width="260" height="40" as="geometry">
            <mxRectangle width="260" height="40" as="alternateBounds" />
          </mxGeometry>
        </mxCell>
        <mxCell id="iaKqFvhlnR3sGgSz1A7N-36" value="" style="shape=partialRectangle;collapsible=0;dropTarget=0;pointerEvents=0;fillColor=none;points=[[0,0.5],[1,0.5]];portConstraint=eastwest;top=0;left=0;right=0;bottom=0;" vertex="1" parent="iaKqFvhlnR3sGgSz1A7N-32">
          <mxGeometry y="70" width="290" height="110" as="geometry" />
        </mxCell>
        <mxCell id="iaKqFvhlnR3sGgSz1A7N-37" value="&#xa;" style="shape=partialRectangle;overflow=hidden;connectable=0;fillColor=none;top=0;left=0;bottom=0;right=0;" vertex="1" parent="iaKqFvhlnR3sGgSz1A7N-36">
          <mxGeometry width="30" height="110" as="geometry">
            <mxRectangle width="30" height="110" as="alternateBounds" />
          </mxGeometry>
        </mxCell>
        <mxCell id="iaKqFvhlnR3sGgSz1A7N-38" value="- fullname : VARCHAR(768) NULL&#xa;&#xa;- shortname : VARCHAR(768) NULL&#xa; &#xa;- category : BIGINT NOT NULL" style="shape=partialRectangle;overflow=hidden;connectable=0;fillColor=none;top=0;left=0;bottom=0;right=0;align=left;spacingLeft=6;" vertex="1" parent="iaKqFvhlnR3sGgSz1A7N-36">
          <mxGeometry x="30" width="260" height="110" as="geometry">
            <mxRectangle width="260" height="110" as="alternateBounds" />
          </mxGeometry>
        </mxCell>
        <mxCell id="iaKqFvhlnR3sGgSz1A7N-39" value="mdl_tool_lifecyclemanager_step&#xa;" style="shape=table;startSize=30;container=1;collapsible=1;childLayout=tableLayout;fixedRows=1;rowLines=0;fontStyle=1;align=center;resizeLast=1;" vertex="1" parent="1">
          <mxGeometry x="780" y="380" width="290" height="300" as="geometry" />
        </mxCell>
        <mxCell id="iaKqFvhlnR3sGgSz1A7N-40" value="" style="shape=partialRectangle;collapsible=0;dropTarget=0;pointerEvents=0;fillColor=none;points=[[0,0.5],[1,0.5]];portConstraint=eastwest;top=0;left=0;right=0;bottom=1;" vertex="1" parent="iaKqFvhlnR3sGgSz1A7N-39">
          <mxGeometry y="30" width="290" height="40" as="geometry" />
        </mxCell>
        <mxCell id="iaKqFvhlnR3sGgSz1A7N-41" value="PK" style="shape=partialRectangle;overflow=hidden;connectable=0;fillColor=none;top=0;left=0;bottom=0;right=0;fontStyle=1;" vertex="1" parent="iaKqFvhlnR3sGgSz1A7N-40">
          <mxGeometry width="30" height="40" as="geometry">
            <mxRectangle width="30" height="40" as="alternateBounds" />
          </mxGeometry>
        </mxCell>
        <mxCell id="iaKqFvhlnR3sGgSz1A7N-42" value="id: BIGINT ( NOT NULL, AUTO_INCREMENT)" style="shape=partialRectangle;overflow=hidden;connectable=0;fillColor=none;top=0;left=0;bottom=0;right=0;align=left;spacingLeft=6;fontStyle=5;" vertex="1" parent="iaKqFvhlnR3sGgSz1A7N-40">
          <mxGeometry x="30" width="260" height="40" as="geometry">
            <mxRectangle width="260" height="40" as="alternateBounds" />
          </mxGeometry>
        </mxCell>
        <mxCell id="iaKqFvhlnR3sGgSz1A7N-43" value="" style="shape=partialRectangle;collapsible=0;dropTarget=0;pointerEvents=0;fillColor=none;points=[[0,0.5],[1,0.5]];portConstraint=eastwest;top=0;left=0;right=0;bottom=0;" vertex="1" parent="iaKqFvhlnR3sGgSz1A7N-39">
          <mxGeometry y="70" width="290" height="230" as="geometry" />
        </mxCell>
        <mxCell id="iaKqFvhlnR3sGgSz1A7N-44" value="&#xa;" style="shape=partialRectangle;overflow=hidden;connectable=0;fillColor=none;top=0;left=0;bottom=0;right=0;" vertex="1" parent="iaKqFvhlnR3sGgSz1A7N-43">
          <mxGeometry width="30" height="230" as="geometry">
            <mxRectangle width="30" height="230" as="alternateBounds" />
          </mxGeometry>
        </mxCell>
        <mxCell id="iaKqFvhlnR3sGgSz1A7N-45" value="- workflowid : BIGINT NOT NULL&#xa; &#xa;- subpluginname : VARCHAR(50) NOT NULL&#xa;&#xa;&#xa;- sortindex : MEDIUMINT NOT NULL&#xa;&#xa;&#xa;- instancename : VARCHAR(50) NOT NULL&#xa;&#xa;&#xa;- timecreated : BIGINT NOT NULL&#xa;&#xa;&#xa;- timemodified : BIGINT NULL&#xa;" style="shape=partialRectangle;overflow=hidden;connectable=0;fillColor=none;top=0;left=0;bottom=0;right=0;align=left;spacingLeft=6;" vertex="1" parent="iaKqFvhlnR3sGgSz1A7N-43">
          <mxGeometry x="30" width="260" height="230" as="geometry">
            <mxRectangle width="260" height="230" as="alternateBounds" />
          </mxGeometry>
        </mxCell>
        <mxCell id="iaKqFvhlnR3sGgSz1A7N-46" value="mdl_tool_lifecyclemanager_proc_error" style="shape=table;startSize=30;container=1;collapsible=1;childLayout=tableLayout;fixedRows=1;rowLines=0;fontStyle=1;align=center;resizeLast=1;" vertex="1" parent="1">
          <mxGeometry x="-410" y="750" width="290" height="260" as="geometry" />
        </mxCell>
        <mxCell id="iaKqFvhlnR3sGgSz1A7N-47" value="" style="shape=partialRectangle;collapsible=0;dropTarget=0;pointerEvents=0;fillColor=none;points=[[0,0.5],[1,0.5]];portConstraint=eastwest;top=0;left=0;right=0;bottom=1;" vertex="1" parent="iaKqFvhlnR3sGgSz1A7N-46">
          <mxGeometry y="30" width="290" height="40" as="geometry" />
        </mxCell>
        <mxCell id="iaKqFvhlnR3sGgSz1A7N-48" value="PK" style="shape=partialRectangle;overflow=hidden;connectable=0;fillColor=none;top=0;left=0;bottom=0;right=0;fontStyle=1;" vertex="1" parent="iaKqFvhlnR3sGgSz1A7N-47">
          <mxGeometry width="30" height="40" as="geometry">
            <mxRectangle width="30" height="40" as="alternateBounds" />
          </mxGeometry>
        </mxCell>
        <mxCell id="iaKqFvhlnR3sGgSz1A7N-49" value="id: BIGINT ( NOT NULL, AUTO_INCREMENT)" style="shape=partialRectangle;overflow=hidden;connectable=0;fillColor=none;top=0;left=0;bottom=0;right=0;align=left;spacingLeft=6;fontStyle=5;" vertex="1" parent="iaKqFvhlnR3sGgSz1A7N-47">
          <mxGeometry x="30" width="260" height="40" as="geometry">
            <mxRectangle width="260" height="40" as="alternateBounds" />
          </mxGeometry>
        </mxCell>
        <mxCell id="iaKqFvhlnR3sGgSz1A7N-50" value="" style="shape=partialRectangle;collapsible=0;dropTarget=0;pointerEvents=0;fillColor=none;points=[[0,0.5],[1,0.5]];portConstraint=eastwest;top=0;left=0;right=0;bottom=0;" vertex="1" parent="iaKqFvhlnR3sGgSz1A7N-46">
          <mxGeometry y="70" width="290" height="190" as="geometry" />
        </mxCell>
        <mxCell id="iaKqFvhlnR3sGgSz1A7N-51" value="&#xa;" style="shape=partialRectangle;overflow=hidden;connectable=0;fillColor=none;top=0;left=0;bottom=0;right=0;" vertex="1" parent="iaKqFvhlnR3sGgSz1A7N-50">
          <mxGeometry width="30" height="190" as="geometry">
            <mxRectangle width="30" height="190" as="alternateBounds" />
          </mxGeometry>
        </mxCell>
        <mxCell id="iaKqFvhlnR3sGgSz1A7N-52" value="- processid : BIGINT NOT NULL &#xa;&#xa;- errormessage : LONGTEXT NULL&#xa; &#xa;- timestepchanged : BIGINT NOT NULL&#xa; &#xa;- errortrace : LONGTEXT NULL&#xa; &#xa;- errorhash : VARCHAR(255) NULL&#xa; &#xa;- errortimecreated : BIGINT NULL" style="shape=partialRectangle;overflow=hidden;connectable=0;fillColor=none;top=0;left=0;bottom=0;right=0;align=left;spacingLeft=6;" vertex="1" parent="iaKqFvhlnR3sGgSz1A7N-50">
          <mxGeometry x="30" width="260" height="190" as="geometry">
            <mxRectangle width="260" height="190" as="alternateBounds" />
          </mxGeometry>
        </mxCell>
        <mxCell id="iaKqFvhlnR3sGgSz1A7N-62" value="" style="endArrow=none;html=1;rounded=0;exitX=0.5;exitY=0;exitDx=0;exitDy=0;" edge="1" parent="1" source="iaKqFvhlnR3sGgSz1A7N-32" target="C-vyLk0tnHw3VtMMgP7b-27">
          <mxGeometry width="50" height="50" relative="1" as="geometry">
            <mxPoint x="-50" y="580" as="sourcePoint" />
            <mxPoint y="530" as="targetPoint" />
          </mxGeometry>
        </mxCell>
        <mxCell id="iaKqFvhlnR3sGgSz1A7N-63" value="" style="endArrow=none;html=1;rounded=0;exitX=0;exitY=0.5;exitDx=0;exitDy=0;entryX=0.75;entryY=0;entryDx=0;entryDy=0;" edge="1" parent="1" source="iaKqFvhlnR3sGgSz1A7N-28" target="C-vyLk0tnHw3VtMMgP7b-23">
          <mxGeometry width="50" height="50" relative="1" as="geometry">
            <mxPoint x="-50" y="580" as="sourcePoint" />
            <mxPoint y="530" as="targetPoint" />
          </mxGeometry>
        </mxCell>
        <mxCell id="iaKqFvhlnR3sGgSz1A7N-65" value="&lt;font size=&quot;3&quot;&gt;1 (Workflow)&lt;/font&gt;" style="edgeLabel;html=1;align=center;verticalAlign=middle;resizable=0;points=[];" vertex="1" connectable="0" parent="iaKqFvhlnR3sGgSz1A7N-63">
          <mxGeometry x="0.0509" y="2" relative="1" as="geometry">
            <mxPoint x="19" y="-126" as="offset" />
          </mxGeometry>
        </mxCell>
        <mxCell id="iaKqFvhlnR3sGgSz1A7N-67" value="&lt;font size=&quot;3&quot;&gt;1...*(Process)&lt;/font&gt;" style="edgeLabel;html=1;align=center;verticalAlign=middle;resizable=0;points=[];" vertex="1" connectable="0" parent="iaKqFvhlnR3sGgSz1A7N-63">
          <mxGeometry x="0.0509" y="2" relative="1" as="geometry">
            <mxPoint x="-173" y="74" as="offset" />
          </mxGeometry>
        </mxCell>
        <mxCell id="iaKqFvhlnR3sGgSz1A7N-68" value="&lt;font size=&quot;3&quot;&gt;0...*(Process)&lt;/font&gt;" style="edgeLabel;html=1;align=center;verticalAlign=middle;resizable=0;points=[];" vertex="1" connectable="0" parent="iaKqFvhlnR3sGgSz1A7N-63">
          <mxGeometry x="0.0509" y="2" relative="1" as="geometry">
            <mxPoint x="8" y="304" as="offset" />
          </mxGeometry>
        </mxCell>
        <mxCell id="iaKqFvhlnR3sGgSz1A7N-69" value="&lt;font size=&quot;3&quot;&gt;1(Course)&lt;/font&gt;" style="edgeLabel;html=1;align=center;verticalAlign=middle;resizable=0;points=[];" vertex="1" connectable="0" parent="iaKqFvhlnR3sGgSz1A7N-63">
          <mxGeometry x="0.0509" y="2" relative="1" as="geometry">
            <mxPoint x="99" y="424" as="offset" />
          </mxGeometry>
        </mxCell>
        <mxCell id="iaKqFvhlnR3sGgSz1A7N-76" value="&lt;font size=&quot;3&quot;&gt;1(Process)&lt;/font&gt;" style="edgeLabel;html=1;align=center;verticalAlign=middle;resizable=0;points=[];" vertex="1" connectable="0" parent="iaKqFvhlnR3sGgSz1A7N-63">
          <mxGeometry x="0.0509" y="2" relative="1" as="geometry">
            <mxPoint x="-291" y="314" as="offset" />
          </mxGeometry>
        </mxCell>
        <mxCell id="iaKqFvhlnR3sGgSz1A7N-77" value="&lt;font size=&quot;3&quot;&gt;0...*(Error)&lt;/font&gt;" style="edgeLabel;html=1;align=center;verticalAlign=middle;resizable=0;points=[];" vertex="1" connectable="0" parent="iaKqFvhlnR3sGgSz1A7N-63">
          <mxGeometry x="0.0509" y="2" relative="1" as="geometry">
            <mxPoint x="-391" y="434" as="offset" />
          </mxGeometry>
        </mxCell>
        <mxCell id="iaKqFvhlnR3sGgSz1A7N-70" value="" style="endArrow=none;html=1;rounded=0;entryX=1;entryY=0.5;entryDx=0;entryDy=0;exitX=0.5;exitY=0;exitDx=0;exitDy=0;" edge="1" parent="1" source="iaKqFvhlnR3sGgSz1A7N-39" target="iaKqFvhlnR3sGgSz1A7N-28">
          <mxGeometry width="50" height="50" relative="1" as="geometry">
            <mxPoint x="910" y="370" as="sourcePoint" />
            <mxPoint x="450" y="250" as="targetPoint" />
          </mxGeometry>
        </mxCell>
        <mxCell id="iaKqFvhlnR3sGgSz1A7N-72" value="&lt;font style=&quot;font-size: 14px;&quot;&gt;1 (Workflow)&lt;/font&gt;" style="edgeLabel;html=1;align=center;verticalAlign=middle;resizable=0;points=[];" vertex="1" connectable="0" parent="iaKqFvhlnR3sGgSz1A7N-70">
          <mxGeometry x="-0.0388" y="-3" relative="1" as="geometry">
            <mxPoint x="-146" y="-116" as="offset" />
          </mxGeometry>
        </mxCell>
        <mxCell id="iaKqFvhlnR3sGgSz1A7N-73" value="&lt;font style=&quot;font-size: 14px;&quot;&gt;1....*(Step)&lt;/font&gt;" style="edgeLabel;html=1;align=center;verticalAlign=middle;resizable=0;points=[];" vertex="1" connectable="0" parent="iaKqFvhlnR3sGgSz1A7N-70">
          <mxGeometry x="-0.0388" y="-3" relative="1" as="geometry">
            <mxPoint x="244" y="74" as="offset" />
          </mxGeometry>
        </mxCell>
        <mxCell id="iaKqFvhlnR3sGgSz1A7N-80" value="&lt;font style=&quot;font-size: 14px;&quot;&gt;0....*(Step)&lt;/font&gt;" style="edgeLabel;html=1;align=center;verticalAlign=middle;resizable=0;points=[];" vertex="1" connectable="0" parent="iaKqFvhlnR3sGgSz1A7N-70">
          <mxGeometry x="-0.0388" y="-3" relative="1" as="geometry">
            <mxPoint x="4" y="164" as="offset" />
          </mxGeometry>
        </mxCell>
        <mxCell id="iaKqFvhlnR3sGgSz1A7N-74" value="" style="endArrow=none;html=1;rounded=0;exitX=0.409;exitY=0.005;exitDx=0;exitDy=0;exitPerimeter=0;" edge="1" parent="1" source="iaKqFvhlnR3sGgSz1A7N-46" target="C-vyLk0tnHw3VtMMgP7b-27">
          <mxGeometry width="50" height="50" relative="1" as="geometry">
            <mxPoint x="400" y="1150" as="sourcePoint" />
            <mxPoint x="40" y="590" as="targetPoint" />
          </mxGeometry>
        </mxCell>
      </root>
    </mxGraphModel>
  </diagram>
</mxfile>
